<svg xmlns="http://www.w3.org/2000/svg" viewBox="0 0 128 128" role="img" aria-label="HackerRank">
  <rect width="128" height="128" rx="28" fill="#0E1419"/>
  <g transform="translate(20,20) scale(3.666)">
    <path fill="#2EC866" d="M0 0v24h24V0zm9.95 8.002h1.805c.061 0 .111.05.111.111v7.767c0 .061-.05.111-.11.111H9.95a.111.111 0 0 1-.111-.11v-2.87H7.894v2.87c0 .06-.05.11-.11.11H5.976a.11.11 0 0 1-.11-.11V8.112c0-.06.05-.11.11-.11h1.806c.061 0 .11.05.11.11v2.869H9.84V8.112c0-.06.05-.11.11-.11zm2.403 0h5.697c.061 0 .11.05.11.11v1.595c0 .06-.049.11-.11.11h-3.68v.832h2.85c.061 0 .11.05.11.11v1.595c0 .061-.049.111-.11.111h-2.85v.833h3.68c.061 0 .11.05.11.11v1.595c0 .061-.049.111-.11.111h-5.698a.11.11 0 0 1-.11-.11V8.112c0-.06.05-.11.11-.11z"/>
  </g>
</svg>